<mxfile host="app.diagrams.net" agent="Mozilla/5.0 (Windows NT 10.0; Win64; x64) AppleWebKit/537.36 (KHTML, like Gecko) Chrome/140.0.0.0 Safari/537.36" version="28.2.5">
  <diagram name="Сторінка-1" id="fKgZwGhtkzPXgX8_e8Hk">
    <mxGraphModel dx="498" dy="251" grid="1" gridSize="10" guides="1" tooltips="1" connect="1" arrows="1" fold="1" page="1" pageScale="1" pageWidth="827" pageHeight="1169" math="0" shadow="0">
      <root>
        <mxCell id="0" />
        <mxCell id="1" parent="0" />
        <mxCell id="xVluyco-PwGBs1aW7o5T-20" value="&lt;span style=&quot;color: rgb(0, 0, 0); font-family: Helvetica; font-size: 8px; font-style: normal; font-variant-ligatures: normal; font-variant-caps: normal; font-weight: 400; letter-spacing: normal; orphans: 2; text-align: center; text-indent: 0px; text-transform: none; widows: 2; word-spacing: 0px; -webkit-text-stroke-width: 0px; white-space: nowrap; background-color: rgb(255, 255, 255); text-decoration-thickness: initial; text-decoration-style: initial; text-decoration-color: initial; float: none; display: inline !important;&quot;&gt;3:Opening the doors&lt;/span&gt;" style="text;whiteSpace=wrap;html=1;" parent="1" vertex="1">
          <mxGeometry x="286" y="246" width="90" height="40" as="geometry" />
        </mxCell>
        <mxCell id="xVluyco-PwGBs1aW7o5T-1" value="People" style="shape=umlActor;verticalLabelPosition=bottom;verticalAlign=top;html=1;outlineConnect=0;" parent="1" vertex="1">
          <mxGeometry x="210" y="186" width="30" height="60" as="geometry" />
        </mxCell>
        <mxCell id="xVluyco-PwGBs1aW7o5T-5" value="" style="endArrow=none;html=1;rounded=0;edgeStyle=orthogonalEdgeStyle;curved=1;entryX=0;entryY=0;entryDx=0;entryDy=0;" parent="1" edge="1">
          <mxGeometry width="50" height="50" relative="1" as="geometry">
            <mxPoint x="250" y="200" as="sourcePoint" />
            <mxPoint x="400.0000000000001" y="200.00000000000006" as="targetPoint" />
            <Array as="points">
              <mxPoint x="250" y="160" />
              <mxPoint x="400" y="160" />
            </Array>
          </mxGeometry>
        </mxCell>
        <mxCell id="xVluyco-PwGBs1aW7o5T-6" value=":Doors" style="rounded=1;whiteSpace=wrap;html=1;" parent="1" vertex="1">
          <mxGeometry x="394" y="200" width="96" height="40" as="geometry" />
        </mxCell>
        <mxCell id="xVluyco-PwGBs1aW7o5T-7" value=":Closer" style="rounded=1;whiteSpace=wrap;html=1;" parent="1" vertex="1">
          <mxGeometry x="610" y="200" width="96" height="40" as="geometry" />
        </mxCell>
        <mxCell id="xVluyco-PwGBs1aW7o5T-8" value="" style="endArrow=classic;html=1;rounded=0;" parent="1" edge="1">
          <mxGeometry width="50" height="50" relative="1" as="geometry">
            <mxPoint x="280" y="154" as="sourcePoint" />
            <mxPoint x="370" y="154" as="targetPoint" />
          </mxGeometry>
        </mxCell>
        <mxCell id="xVluyco-PwGBs1aW7o5T-10" value="&lt;span style=&quot;background-color: rgb(255, 255, 255);&quot;&gt;&lt;font style=&quot;font-size: 8px;&quot;&gt;1:Check if the&amp;nbsp;&lt;/font&gt;&lt;/span&gt;&lt;span style=&quot;font-size: 8px; background-color: transparent; color: light-dark(rgb(0, 0, 0), rgb(255, 255, 255));&quot;&gt;doors are open&lt;/span&gt;" style="text;html=1;align=center;verticalAlign=middle;resizable=0;points=[];autosize=1;strokeColor=none;fillColor=none;" parent="1" vertex="1">
          <mxGeometry x="259" y="129" width="130" height="30" as="geometry" />
        </mxCell>
        <mxCell id="xVluyco-PwGBs1aW7o5T-12" value="" style="endArrow=none;html=1;rounded=0;" parent="1" edge="1">
          <mxGeometry width="50" height="50" relative="1" as="geometry">
            <mxPoint x="250" y="222" as="sourcePoint" />
            <mxPoint x="394" y="221" as="targetPoint" />
          </mxGeometry>
        </mxCell>
        <mxCell id="xVluyco-PwGBs1aW7o5T-14" value="" style="endArrow=classic;html=1;rounded=0;" parent="1" edge="1">
          <mxGeometry width="50" height="50" relative="1" as="geometry">
            <mxPoint x="279.5" y="215.85" as="sourcePoint" />
            <mxPoint x="368.5" y="215.85" as="targetPoint" />
          </mxGeometry>
        </mxCell>
        <mxCell id="xVluyco-PwGBs1aW7o5T-15" value="&lt;span style=&quot;color: rgb(0, 0, 0); font-family: Helvetica; font-style: normal; font-variant-ligatures: normal; font-variant-caps: normal; font-weight: 400; letter-spacing: normal; orphans: 2; text-align: center; text-indent: 0px; text-transform: none; widows: 2; word-spacing: 0px; -webkit-text-stroke-width: 0px; white-space: nowrap; background-color: rgb(255, 255, 255); text-decoration-thickness: initial; text-decoration-style: initial; text-decoration-color: initial; float: none; display: inline !important;&quot;&gt;&lt;font style=&quot;font-size: 8px;&quot;&gt;2:Open the door with a key&lt;/font&gt;&lt;/span&gt;" style="text;whiteSpace=wrap;html=1;" parent="1" vertex="1">
          <mxGeometry x="272" y="190" width="160" height="40" as="geometry" />
        </mxCell>
        <mxCell id="xVluyco-PwGBs1aW7o5T-17" value="" style="endArrow=none;html=1;rounded=0;edgeStyle=orthogonalEdgeStyle;curved=1;entryX=0;entryY=0;entryDx=0;entryDy=0;" parent="1" edge="1">
          <mxGeometry width="50" height="50" relative="1" as="geometry">
            <mxPoint x="399.97000000000014" y="240.00000000000003" as="sourcePoint" />
            <mxPoint x="249.97000000000003" y="240.00000000000003" as="targetPoint" />
            <Array as="points">
              <mxPoint x="400" y="280.03" />
              <mxPoint x="250" y="280.03" />
            </Array>
          </mxGeometry>
        </mxCell>
        <mxCell id="xVluyco-PwGBs1aW7o5T-19" value="" style="endArrow=classic;html=1;rounded=0;" parent="1" edge="1">
          <mxGeometry width="50" height="50" relative="1" as="geometry">
            <mxPoint x="280" y="270" as="sourcePoint" />
            <mxPoint x="370" y="270" as="targetPoint" />
          </mxGeometry>
        </mxCell>
        <mxCell id="xVluyco-PwGBs1aW7o5T-21" value="&lt;span style=&quot;color: rgb(0, 0, 0); font-family: Helvetica; font-size: 8px; font-style: normal; font-variant-ligatures: normal; font-variant-caps: normal; font-weight: 400; letter-spacing: normal; orphans: 2; text-align: center; text-indent: 0px; text-transform: none; widows: 2; word-spacing: 0px; -webkit-text-stroke-width: 0px; white-space: nowrap; background-color: rgb(255, 255, 255); text-decoration-thickness: initial; text-decoration-style: initial; text-decoration-color: initial; float: none; display: inline !important;&quot;&gt;6:Start closing&lt;/span&gt;" style="text;whiteSpace=wrap;html=1;" parent="1" vertex="1">
          <mxGeometry x="520" y="249" width="90" height="40" as="geometry" />
        </mxCell>
        <mxCell id="xVluyco-PwGBs1aW7o5T-22" value="" style="align=right;html=1;verticalAlign=bottom;endArrow=none;startArrow=diamondThin;startSize=14;startFill=1;edgeStyle=orthogonalEdgeStyle;rounded=0;curved=1;entryX=1;entryY=0;entryDx=0;entryDy=0;exitX=0;exitY=0;exitDx=0;exitDy=0;" parent="1" source="xVluyco-PwGBs1aW7o5T-7" target="xVluyco-PwGBs1aW7o5T-6" edge="1">
          <mxGeometry x="1" relative="1" as="geometry">
            <mxPoint x="570" y="179.33333333333334" as="sourcePoint" />
            <mxPoint x="460" y="180" as="targetPoint" />
            <Array as="points">
              <mxPoint x="610" y="160" />
              <mxPoint x="490" y="160" />
            </Array>
          </mxGeometry>
        </mxCell>
        <mxCell id="xVluyco-PwGBs1aW7o5T-23" value="" style="resizable=0;html=1;align=left;verticalAlign=top;labelBackgroundColor=none;fontSize=10" parent="xVluyco-PwGBs1aW7o5T-22" connectable="0" vertex="1">
          <mxGeometry x="-1" relative="1" as="geometry" />
        </mxCell>
        <mxCell id="xVluyco-PwGBs1aW7o5T-24" value="" style="resizable=0;html=1;align=right;verticalAlign=top;labelBackgroundColor=none;fontSize=10" parent="xVluyco-PwGBs1aW7o5T-22" connectable="0" vertex="1">
          <mxGeometry x="1" relative="1" as="geometry" />
        </mxCell>
        <mxCell id="xVluyco-PwGBs1aW7o5T-25" value="" style="endArrow=classic;html=1;rounded=0;" parent="1" edge="1">
          <mxGeometry width="50" height="50" relative="1" as="geometry">
            <mxPoint x="511" y="154" as="sourcePoint" />
            <mxPoint x="590" y="154" as="targetPoint" />
          </mxGeometry>
        </mxCell>
        <mxCell id="xVluyco-PwGBs1aW7o5T-26" value="&lt;font style=&quot;font-size: 8px;&quot;&gt;4:Go to opening state&lt;/font&gt;" style="text;html=1;align=center;verticalAlign=middle;resizable=0;points=[];autosize=1;strokeColor=none;fillColor=none;" parent="1" vertex="1">
          <mxGeometry x="499" y="129" width="100" height="30" as="geometry" />
        </mxCell>
        <mxCell id="xVluyco-PwGBs1aW7o5T-30" value="" style="endArrow=none;html=1;rounded=0;edgeStyle=orthogonalEdgeStyle;curved=1;" parent="1" edge="1">
          <mxGeometry width="50" height="50" relative="1" as="geometry">
            <mxPoint x="400" y="240" as="sourcePoint" />
            <mxPoint x="250" y="240" as="targetPoint" />
            <Array as="points">
              <mxPoint x="400" y="330" />
              <mxPoint x="250" y="330" />
            </Array>
          </mxGeometry>
        </mxCell>
        <mxCell id="xVluyco-PwGBs1aW7o5T-31" value="" style="endArrow=classic;html=1;rounded=0;" parent="1" edge="1">
          <mxGeometry width="50" height="50" relative="1" as="geometry">
            <mxPoint x="290" y="320" as="sourcePoint" />
            <mxPoint x="360" y="320" as="targetPoint" />
          </mxGeometry>
        </mxCell>
        <mxCell id="xVluyco-PwGBs1aW7o5T-32" value="&lt;span style=&quot;font-size: 8px;&quot;&gt;5:Leave the doors&lt;/span&gt;" style="text;html=1;align=center;verticalAlign=middle;resizable=0;points=[];autosize=1;strokeColor=none;fillColor=none;" parent="1" vertex="1">
          <mxGeometry x="278" y="296" width="90" height="30" as="geometry" />
        </mxCell>
        <mxCell id="xVluyco-PwGBs1aW7o5T-33" value="" style="align=right;html=1;verticalAlign=bottom;endArrow=none;startArrow=diamondThin;startSize=14;startFill=1;edgeStyle=orthogonalEdgeStyle;rounded=0;curved=1;entryX=1;entryY=0;entryDx=0;entryDy=0;exitX=0;exitY=0;exitDx=0;exitDy=0;" parent="1" edge="1">
          <mxGeometry x="1" relative="1" as="geometry">
            <mxPoint x="610" y="239" as="sourcePoint" />
            <mxPoint x="490" y="239" as="targetPoint" />
            <Array as="points">
              <mxPoint x="610" y="283" />
              <mxPoint x="490" y="283" />
            </Array>
          </mxGeometry>
        </mxCell>
        <mxCell id="xVluyco-PwGBs1aW7o5T-34" value="" style="resizable=0;html=1;align=left;verticalAlign=top;labelBackgroundColor=none;fontSize=10" parent="xVluyco-PwGBs1aW7o5T-33" connectable="0" vertex="1">
          <mxGeometry x="-1" relative="1" as="geometry" />
        </mxCell>
        <mxCell id="xVluyco-PwGBs1aW7o5T-35" value="" style="resizable=0;html=1;align=right;verticalAlign=top;labelBackgroundColor=none;fontSize=10" parent="xVluyco-PwGBs1aW7o5T-33" connectable="0" vertex="1">
          <mxGeometry x="1" relative="1" as="geometry" />
        </mxCell>
        <mxCell id="xVluyco-PwGBs1aW7o5T-36" value="" style="endArrow=classic;html=1;rounded=0;" parent="1" edge="1">
          <mxGeometry width="50" height="50" relative="1" as="geometry">
            <mxPoint x="513" y="274" as="sourcePoint" />
            <mxPoint x="592" y="273.74" as="targetPoint" />
          </mxGeometry>
        </mxCell>
      </root>
    </mxGraphModel>
  </diagram>
</mxfile>
